<svg xmlns="http://www.w3.org/2000/svg" version="1.1" xmlns:xlink="http://www.w3.org/1999/xlink" viewBox="0 0 200 200"><rect width="200" height="200" fill="url('#gradient')"></rect><defs><linearGradient id="gradient" gradientTransform="rotate(45 0.5 0.5)"><stop offset="0%" stop-color="#ba8d66"></stop><stop offset="100%" stop-color="#984a4d"></stop></linearGradient></defs><g><g fill="#589f9c" transform="matrix(6.1195219123505975,0,0,6.1195219123505975,3.432693759283694,143.50917648034266)" stroke="#5bcad4" stroke-width="0.2"><path d="M1.07-14.22L5.58-14.22L8.75-4.33L11.91-14.22L16.43-14.22L16.43 0L12.99 0L12.99-3.32L13.32-10.12L9.88 0L7.62 0L4.17-10.13L4.50-3.32L4.50 0L1.07 0L1.07-14.22ZM30.49-14.22L30.49 0L27.08 0L27.08-5.94L22.03-5.94L22.03 0L18.60 0L18.60-14.22L22.03-14.22L22.03-8.57L27.08-8.57L27.08-14.22L30.49-14.22Z"></path></g></g></svg>